<?xml version="1.0" standalone="no"?>
<!DOCTYPE svg PUBLIC "-//W3C//DTD SVG 20010904//EN"
 "http://www.w3.org/TR/2001/REC-SVG-20010904/DTD/svg10.dtd">
<svg version="1.0" xmlns="http://www.w3.org/2000/svg"
 width="460.000000pt" height="460.000000pt" viewBox="0 0 460.000000 460.000000"
 preserveAspectRatio="xMidYMid meet">
<metadata>
Created by potrace 1.11, written by Peter Selinger 2001-2013
</metadata>
<g transform="translate(0.000000,460.000000) scale(0.100000,-0.100000)"
fill="#000000" stroke="none">
<path d="M0 4443 c0 -156 1 -158 19 -134 26 34 70 25 198 -40 99 -49 227 -151
254 -201 9 -17 7 -18 -18 -13 -18 4 -9 -3 24 -20 47 -24 133 -112 133 -136 0
-5 -60 -10 -132 -11 l-133 -1 144 -7 145 -7 38 -43 c21 -23 38 -51 38 -61 0
-11 6 -19 13 -19 14 0 112 -106 112 -122 0 -6 13 -15 29 -19 30 -8 66 -36 66
-51 0 -5 -11 -13 -25 -18 -14 -5 -25 -12 -25 -15 0 -2 12 0 26 5 30 12 64 13
64 2 0 -4 -12 -21 -27 -38 -56 -61 -112 -141 -164 -232 -29 -51 -64 -103 -78
-115 -25 -22 -93 -101 -120 -142 -17 -25 20 15 76 80 22 28 44 47 48 44 3 -4
-10 -38 -29 -76 -82 -161 -145 -421 -153 -640 -3 -79 -9 -143 -12 -143 -6 0
-34 18 -92 59 -41 29 -163 172 -223 261 -56 84 -127 226 -156 310 -37 110 -39
105 -40 -74 l0 -169 47 -91 c53 -104 110 -185 146 -208 13 -9 50 -24 81 -33
68 -20 96 -56 96 -121 0 -55 20 -77 105 -119 l69 -34 39 -113 c21 -62 41 -123
44 -136 5 -22 3 -24 -82 -57 -11 -4 -15 -9 -8 -12 6 -2 28 3 48 11 21 9 43 16
51 16 7 0 38 -43 69 -95 58 -98 75 -118 75 -91 0 9 12 18 28 22 89 19 212 65
312 117 122 64 262 151 306 192 30 28 102 65 127 65 9 0 17 5 17 10 0 6 -7 10
-15 10 -9 0 21 43 74 106 49 59 95 118 102 133 8 14 24 43 36 63 13 21 23 40
23 43 0 2 -24 -4 -52 -14 -194 -70 -277 -84 -425 -72 -261 21 -411 121 -489
323 -24 65 -27 84 -26 187 1 137 20 221 75 340 116 254 368 421 632 421 146 0
267 -46 390 -146 49 -40 54 -41 44 -18 -5 15 -7 43 -3 63 25 153 73 341 100
393 12 23 21 28 53 28 120 0 487 -200 538 -294 9 -15 13 -10 27 35 45 137 118
234 212 280 61 30 68 32 152 26 83 -5 194 -37 272 -79 89 -47 224 -190 265
-281 57 -124 70 -316 29 -432 -23 -66 -94 -134 -190 -181 l-75 -38 48 -18 c26
-10 82 -26 123 -35 118 -25 297 -6 388 41 18 9 37 14 42 11 31 -19 51 -265 36
-450 -6 -66 -5 -68 7 -35 14 35 14 35 91 41 42 4 80 10 84 14 4 4 -30 5 -76 2
l-83 -6 2 112 c1 63 0 118 -3 123 -5 8 -18 102 -23 164 -2 14 -5 32 -8 40 -3
8 -10 31 -15 50 -38 130 -79 245 -124 337 -48 102 -148 264 -189 309 -14 15
-22 45 -28 115 -19 194 -80 420 -153 562 -5 11 -7 22 -4 25 4 3 240 7 527 8
467 2 609 7 596 20 -2 3 -92 7 -198 10 -191 5 -280 16 -308 38 -8 6 -16 10
-18 9 -1 -2 -16 -3 -32 -3 -22 0 -30 5 -33 24 -7 33 20 96 32 76 6 -10 10 -3
15 23 9 46 1 69 -20 61 -11 -5 -19 3 -28 25 l-11 31 -418 0 c-230 0 -418 -2
-418 -4 0 -2 21 -35 46 -73 57 -86 155 -285 187 -381 14 -40 27 -76 31 -79 3
-4 6 -17 6 -31 0 -14 5 -42 11 -63 9 -30 9 -42 -1 -54 -10 -12 -10 -15 3 -15
11 0 18 -14 22 -47 4 -27 9 -56 12 -65 2 -10 0 -18 -5 -18 -14 0 -236 149
-240 161 -2 5 -13 9 -25 9 -12 0 -35 7 -52 16 -16 9 -66 32 -110 51 -44 19
-82 37 -85 42 -3 4 -43 12 -89 19 -46 6 -86 14 -89 17 -7 6 35 43 71 62 16 8
27 17 24 20 -5 5 -28 -8 -97 -53 -33 -22 -39 -23 -110 -12 -41 6 -77 14 -80
17 -3 3 -32 6 -65 6 l-60 0 3 39 c2 22 10 52 18 67 16 31 19 52 4 29 -13 -19
-13 -15 -10 115 1 79 7 113 26 160 25 63 25 85 0 38 l-15 -28 -1 28 0 27
-1225 0 -1225 0 0 -157z m548 79 c1 -4 16 -7 32 -4 25 3 30 0 36 -22 6 -26 6
-26 103 -24 79 1 87 2 42 7 -41 5 -55 10 -57 24 -2 13 5 17 31 17 19 0 37 5
40 10 11 17 43 11 59 -12 11 -16 13 -25 4 -35 -8 -10 -4 -13 22 -13 19 0 31
-3 27 -6 -11 -11 -252 -13 -286 -2 -21 6 -36 7 -40 1 -11 -17 -123 -29 -179
-19 -47 8 -52 11 -46 30 10 32 34 45 81 46 23 0 44 4 47 9 7 11 80 5 84 -7z
m412 -56 c0 -11 -19 -15 -25 -6 -3 5 1 10 9 10 9 0 16 -2 16 -4z m-510 -55 c0
-4 27 -14 60 -20 34 -7 63 -19 68 -28 8 -14 12 -14 35 2 23 15 42 15 214 5
220 -13 237 -14 323 -10 91 4 523 -19 563 -31 17 -5 99 -9 182 -9 82 0 155 -4
162 -8 8 -5 8 -21 -3 -62 -8 -30 -17 -79 -21 -107 -3 -29 -11 -57 -17 -62 -6
-5 -74 -22 -151 -39 -134 -30 -273 -78 -397 -137 l-57 -27 -95 66 c-52 36 -98
66 -101 66 -3 0 -27 14 -53 32 -55 36 -80 86 -80 160 0 25 -3 57 -7 69 -7 20
-8 20 -17 5 -14 -26 -11 -112 5 -146 17 -33 16 -35 -11 -21 -70 36 -217 102
-372 168 -86 37 -188 71 -279 93 -45 11 -63 30 -30 31 13 1 32 1 42 0 9 -1 17
3 17 8 0 6 5 11 10 11 6 0 10 -4 10 -9z m3443 -2 c-8 -8 -19 -8 -40 -1 -28 10
-28 10 12 11 28 1 36 -2 28 -10z m29 -32 c4 -6 4 -15 0 -19 -12 -12 -61 -17
-67 -7 -4 5 -14 5 -23 1 -24 -12 -244 -15 -260 -4 -11 7 -10 12 3 26 22 21
105 23 105 1 0 -20 16 -19 38 3 14 14 32 17 107 14 57 -1 92 -7 97 -15z
m-3238 -1701 c19 -61 44 -144 56 -184 12 -40 39 -107 61 -148 45 -87 64 -178
56 -272 -6 -75 -26 -108 -82 -135 -37 -18 -39 -18 -74 0 -49 26 -85 103 -100
214 -19 146 -9 622 14 659 13 22 32 -15 69 -134z"/>
<path d="M738 4503 c12 -2 32 -2 45 0 12 2 2 4 -23 4 -25 0 -35 -2 -22 -4z"/>
<path d="M2646 4525 c-38 -41 -76 -85 -85 -99 -9 -13 -35 -51 -59 -85 -23 -33
-39 -61 -35 -61 7 0 24 23 101 136 12 19 55 67 95 109 40 41 67 75 62 75 -6 0
-42 -34 -79 -75z"/>
<path d="M3994 4585 c11 -8 35 -15 53 -15 18 0 33 -3 33 -8 0 -4 18 -6 41 -4
47 5 75 -13 47 -29 -23 -13 -25 -51 -2 -42 8 3 26 0 39 -7 30 -16 72 -6 80 20
3 11 10 20 15 20 5 0 7 6 4 14 -4 10 8 15 43 19 37 4 54 1 74 -14 15 -10 34
-19 43 -19 13 0 15 -7 10 -39 -6 -37 -5 -39 16 -34 23 6 25 10 34 61 4 25 2
32 -10 32 -14 0 -14 3 -4 15 7 9 29 15 51 15 28 0 39 4 39 15 0 13 -41 15
-312 15 -277 -1 -311 -2 -294 -15z"/>
<path d="M4556 4521 c-3 -4 6 -6 19 -3 14 2 25 6 25 8 0 8 -39 4 -44 -5z"/>
<path d="M2935 4499 c-61 -32 -87 -50 -81 -56 3 -3 26 7 51 21 25 15 63 33 83
41 32 12 33 14 12 14 -14 1 -43 -8 -65 -20z"/>
<path d="M2773 4392 c-26 -21 -55 -47 -63 -58 -14 -17 24 10 95 70 48 40 22
30 -32 -12z"/>
<path d="M2620 4240 c-42 -51 -49 -69 -10 -27 27 28 63 77 57 77 -3 0 -24 -22
-47 -50z"/>
<path d="M3028 4233 c7 -3 16 -2 19 1 4 3 -2 6 -13 5 -11 0 -14 -3 -6 -6z"/>
<path d="M2948 4213 c6 -2 18 -2 25 0 6 3 1 5 -13 5 -14 0 -19 -2 -12 -5z"/>
<path d="M2556 4165 c-9 -26 -7 -32 5 -12 6 10 9 21 6 23 -2 3 -7 -2 -11 -11z"/>
<path d="M4513 4140 c-17 -10 -37 -28 -43 -40 -18 -33 -16 -94 3 -124 22 -33
74 -66 105 -66 22 0 22 2 22 125 l0 125 -27 0 c-16 0 -42 -9 -60 -20z"/>
<path d="M3120 4102 c0 -9 99 -7 108 2 3 3 -20 6 -51 6 -31 0 -57 -4 -57 -8z"/>
<path d="M3053 4093 c9 -2 25 -2 35 0 9 3 1 5 -18 5 -19 0 -27 -2 -17 -5z"/>
<path d="M268 4083 c7 -3 16 -2 19 1 4 3 -2 6 -13 5 -11 0 -14 -3 -6 -6z"/>
<path d="M83 4073 c9 -2 23 -2 30 0 6 3 -1 5 -18 5 -16 0 -22 -2 -12 -5z"/>
<path d="M333 4073 c9 -2 25 -2 35 0 9 3 1 5 -18 5 -19 0 -27 -2 -17 -5z"/>
<path d="M2948 4073 c6 -2 18 -2 25 0 6 3 1 5 -13 5 -14 0 -19 -2 -12 -5z"/>
<path d="M3301 3926 c2 -2 22 -6 44 -10 29 -5 36 -4 25 3 -13 10 -79 16 -69 7z"/>
<path d="M265 3870 c-18 -8 -18 -9 5 -8 14 0 36 4 50 8 24 8 24 8 -5 8 -16 0
-39 -3 -50 -8z"/>
<path d="M185 3850 c-13 -6 -15 -9 -5 -9 8 0 22 4 30 9 18 12 2 12 -25 0z"/>
<path d="M30 3800 c-9 -6 -10 -10 -3 -10 6 0 15 5 18 10 8 12 4 12 -15 0z"/>
<path d="M528 3733 c7 -3 16 -2 19 1 4 3 -2 6 -13 5 -11 0 -14 -3 -6 -6z"/>
<path d="M433 3712 c-38 -16 -78 -42 -43 -29 8 3 32 11 53 18 20 7 37 16 37
21 0 10 4 11 -47 -10z"/>
<path d="M300 3650 c-8 -5 -10 -10 -5 -10 6 0 17 5 25 10 8 5 11 10 5 10 -5 0
-17 -5 -25 -10z"/>
<path d="M2932 3589 c-54 -27 -78 -58 -98 -126 -41 -141 57 -295 204 -319 76
-12 155 35 187 112 19 47 19 136 0 202 -38 127 -176 188 -293 131z"/>
<path d="M510 3520 c-9 -6 -10 -10 -3 -10 6 0 15 5 18 10 8 12 4 12 -15 0z"/>
<path d="M830 3510 c-8 -5 -10 -10 -5 -10 6 0 17 5 25 10 8 5 11 10 5 10 -5 0
-17 -5 -25 -10z"/>
<path d="M425 3470 c-3 -6 1 -7 9 -4 18 7 21 14 7 14 -6 0 -13 -4 -16 -10z"/>
<path d="M697 3429 c-26 -18 -45 -34 -43 -36 4 -4 57 30 91 59 20 17 -2 6 -48
-23z"/>
<path d="M485 3250 c-16 -16 -27 -31 -24 -33 2 -2 17 11 32 30 36 41 31 43 -8
3z"/>
<path d="M1510 3265 c-138 -39 -200 -117 -200 -254 0 -93 27 -159 93 -225 60
-59 118 -88 193 -94 72 -5 122 9 181 51 140 99 172 262 80 400 -35 52 -53 67
-107 95 -80 40 -161 49 -240 27z"/>
<path d="M426 3184 c-9 -24 -2 -26 12 -4 7 11 8 20 3 20 -5 0 -12 -7 -15 -16z"/>
<path d="M363 3088 c-16 -23 -66 -123 -56 -113 12 11 74 125 69 125 -2 0 -8
-6 -13 -12z"/>
<path d="M535 2935 c-15 -25 -25 -49 -21 -52 3 -3 9 3 12 13 4 10 16 32 27 47
10 16 17 30 14 33 -3 3 -17 -15 -32 -41z"/>
<path d="M281 2942 c-17 -31 -13 -40 5 -14 9 13 14 26 11 29 -3 2 -10 -4 -16
-15z"/>
<path d="M2537 2856 c-83 -23 -90 -56 -12 -56 48 0 105 36 91 58 -9 15 -18 14
-79 -2z"/>
<path d="M4538 2829 c-29 -31 -38 -47 -34 -63 3 -11 6 -31 6 -44 0 -28 42 -72
70 -72 19 0 20 6 20 110 0 76 -4 110 -12 110 -6 0 -29 -19 -50 -41z"/>
<path d="M475 2829 c-4 -6 -5 -12 -2 -15 2 -3 7 2 10 11 7 17 1 20 -8 4z"/>
<path d="M447 2759 c-10 -23 -16 -46 -14 -53 3 -6 8 3 12 19 4 17 12 35 17 42
6 7 8 17 6 23 -2 6 -11 -8 -21 -31z"/>
<path d="M4185 2695 c-5 -2 -50 -9 -98 -15 -48 -7 -86 -15 -83 -17 9 -9 226
19 220 28 -5 9 -20 10 -39 4z"/>
<path d="M2680 2591 c0 -5 -9 -7 -20 -4 -13 4 -20 0 -20 -10 0 -9 -13 -17 -35
-21 -27 -5 -44 -19 -75 -59 -21 -29 -57 -72 -79 -97 l-39 -45 31 -42 c28 -40
32 -42 48 -27 11 10 19 12 24 4 3 -5 10 -8 14 -5 5 2 21 1 37 -4 16 -4 39 -4
52 0 15 6 21 5 17 -1 -3 -6 -1 -10 5 -10 13 0 61 -20 123 -51 22 -10 43 -19
49 -19 5 0 29 -14 54 -30 24 -17 44 -27 44 -23 1 4 8 -5 16 -20 24 -45 26 -27
5 64 -11 46 -25 134 -31 194 -7 61 -14 119 -16 131 -3 16 -23 28 -92 53 -92
33 -112 37 -112 22z m-211 -265 c-2 -20 -2 -20 -6 2 -2 12 -9 22 -14 22 -5 0
-9 5 -9 11 0 8 5 8 15 -1 8 -7 14 -22 14 -34z"/>
<path d="M4395 2521 c-3 -5 -1 -12 4 -15 5 -3 11 1 15 9 6 16 -9 21 -19 6z"/>
<path d="M4575 2433 c5 -24 2 -34 -14 -45 -39 -28 -51 -98 -17 -98 39 0 65
110 37 156 -10 17 -11 15 -6 -13z"/>
<path d="M4220 2415 c-10 -12 -10 -15 4 -15 9 0 16 7 16 15 0 8 -2 15 -4 15
-2 0 -9 -7 -16 -15z"/>
<path d="M4143 2378 c-11 -13 -23 -30 -26 -38 -3 -8 -12 -32 -21 -52 -9 -21
-14 -38 -11 -38 4 0 18 26 32 58 14 31 35 65 47 74 11 10 16 18 10 18 -6 0
-20 -10 -31 -22z"/>
<path d="M4425 2358 c-31 -28 -39 -80 -13 -86 11 -2 25 9 38 30 21 34 27 78
11 78 -6 0 -22 -10 -36 -22z"/>
<path d="M3936 2288 c-3 -13 -5 -32 -5 -43 1 -11 5 -2 10 19 10 42 6 62 -5 24z"/>
<path d="M4303 2268 c-25 -12 -49 -76 -34 -91 18 -18 50 4 61 41 17 64 14 70
-27 50z"/>
<path d="M3921 2213 c-1 -6 -4 -20 -7 -30 -5 -17 -5 -17 6 0 6 10 9 23 6 30
-3 9 -5 9 -5 0z"/>
<path d="M4439 2170 c-23 -27 -50 -52 -60 -55 -24 -8 -69 -84 -69 -116 0 -14
5 -30 12 -37 16 -16 59 -15 82 3 11 8 34 15 50 15 61 1 85 40 84 131 -1 123
-30 140 -99 59z"/>
<path d="M4025 2180 c-22 -23 -25 -30 -12 -30 9 0 17 5 17 12 0 6 7 20 17 30
27 30 9 20 -22 -12z"/>
<path d="M4586 2185 c-4 -14 -2 -33 3 -43 8 -13 10 -8 11 26 0 48 -5 54 -14
17z"/>
<path d="M3892 2123 c-15 -48 -8 -55 8 -8 7 20 10 38 8 41 -3 2 -10 -13 -16
-33z"/>
<path d="M4591 2093 c0 -6 -4 -20 -7 -30 -5 -14 -4 -15 5 -7 7 7 11 20 8 30
-3 11 -5 14 -6 7z"/>
<path d="M4022 2068 c-14 -14 -16 -68 -3 -68 14 0 41 41 41 62 0 21 -20 24
-38 6z"/>
<path d="M3851 2019 c-12 -28 -20 -53 -18 -56 3 -2 19 14 37 37 23 29 27 40
16 40 -10 0 -13 6 -10 15 4 8 4 15 2 15 -2 0 -14 -23 -27 -51z"/>
<path d="M4555 1990 c-9 -28 -15 -54 -12 -57 3 -3 13 19 21 48 21 68 13 76 -9
9z"/>
<path d="M3482 1930 c0 -14 2 -19 5 -12 2 6 2 18 0 25 -3 6 -5 1 -5 -13z"/>
<path d="M2718 1924 c10 -20 42 -52 42 -42 0 3 -12 18 -26 34 -17 19 -22 22
-16 8z"/>
<path d="M2990 1929 c0 -5 5 -7 10 -4 6 3 10 8 10 11 0 2 -4 4 -10 4 -5 0 -10
-5 -10 -11z"/>
<path d="M2770 1861 c0 -5 5 -13 10 -16 6 -3 10 -2 10 4 0 5 -4 13 -10 16 -5
3 -10 2 -10 -4z"/>
<path d="M3279 1841 c-19 -20 -29 -40 -29 -60 0 -63 58 -21 67 48 3 23 2 41
-1 41 -4 0 -21 -13 -37 -29z"/>
<path d="M3420 1790 c-23 -32 -21 -60 3 -60 19 0 44 30 52 63 6 23 4 27 -13
27 -12 0 -30 -14 -42 -30z"/>
<path d="M2886 1791 c-10 -11 -24 -17 -31 -15 -10 4 -12 -1 -8 -15 3 -12 7
-21 8 -21 1 0 15 16 29 35 29 38 30 47 2 16z"/>
<path d="M3100 1790 c-23 -23 -26 -62 -6 -79 32 -26 82 30 69 78 -7 27 -37 27
-63 1z"/>
<path d="M204 1736 c-22 -22 -34 -44 -35 -62 -3 -86 13 -117 77 -145 42 -19
46 -19 80 -3 41 20 84 81 84 121 0 35 -32 88 -62 104 -13 7 -43 14 -67 16 -38
2 -48 -2 -77 -31z"/>
<path d="M3466 1669 c-18 -22 -26 -42 -26 -70 l0 -40 29 33 c33 39 51 71 51
92 0 26 -26 18 -54 -15z"/>
<path d="M3184 1605 c-79 -80 -90 -108 -54 -140 17 -16 27 -17 63 -8 28 6 51
6 65 0 62 -28 107 36 96 135 -8 68 -23 88 -66 88 -24 0 -44 -15 -104 -75z"/>
<path d="M790 1535 c0 -9 -29 -29 -72 -50 -40 -20 -77 -41 -83 -47 -6 -7 -6
-9 0 -6 87 45 166 77 179 72 24 -9 20 23 -4 36 -16 9 -20 8 -20 -5z"/>
<path d="M3480 1495 c-48 -37 -65 -42 -73 -22 -3 6 -6 8 -6 2 0 -5 11 -23 25
-40 24 -28 25 -29 22 -7 -2 17 9 34 42 62 56 49 50 51 -10 5z"/>
<path d="M3370 1378 c-34 -37 -18 -58 31 -38 33 14 33 14 19 41 -14 25 -25 24
-50 -3z"/>
<path d="M1010 1281 c0 -9 -22 -31 -48 -48 -56 -39 -108 -83 -97 -83 4 0 35
20 69 43 99 71 102 72 139 44 51 -38 65 -41 24 -5 -20 18 -37 38 -37 44 0 7
-11 14 -25 16 -18 4 -25 1 -25 -11z"/>
<path d="M1820 1107 c-58 -30 -124 -65 -147 -80 -36 -23 -50 -26 -90 -21 -32
4 -43 2 -35 -4 11 -8 11 -20 -3 -70 -15 -52 -17 -95 -12 -299 4 -200 9 -261
31 -383 15 -79 34 -168 42 -197 l15 -53 140 0 c125 0 159 6 130 24 -11 7 -23
87 -22 151 1 84 57 299 144 550 38 108 42 129 42 216 0 88 -2 98 -27 131 -15
19 -41 41 -58 48 -19 8 -29 18 -26 26 9 23 -15 16 -124 -39z"/>
<path d="M1250 1115 c20 -21 22 -28 12 -47 -16 -33 -2 -91 26 -103 12 -5 22
-13 22 -17 0 -11 64 -10 95 2 14 5 30 21 35 34 5 13 17 29 27 34 16 10 16 11
-7 20 -102 40 -141 56 -179 78 -55 30 -60 30 -31 -1z"/>
<path d="M1498 1013 c7 -3 16 -2 19 1 4 3 -2 6 -13 5 -11 0 -14 -3 -6 -6z"/>
<path d="M3806 707 c3 -10 9 -15 12 -12 3 3 0 11 -7 18 -10 9 -11 8 -5 -6z"/>
<path d="M3860 544 c15 -39 31 -66 36 -61 5 5 -35 87 -42 87 -2 0 1 -12 6 -26z"/>
<path d="M4156 25 c9 -14 20 -25 25 -25 5 0 2 11 -7 25 -9 14 -20 25 -25 25
-5 0 -2 -11 7 -25z"/>
</g>
</svg>
